<svg width="16" height="16" viewBox="0 0 16 16" fill="none" xmlns="http://www.w3.org/2000/svg">
  <!-- Flag pole -->
  <rect x="1" y="0" width="1" height="16" fill="currentColor"/>

  <!-- Checkered flag pattern -->
  <!-- Row 1 -->
  <rect x="2" y="2" width="2" height="2" fill="currentColor"/>
  <rect x="6" y="2" width="2" height="2" fill="currentColor"/>
  <rect x="10" y="2" width="2" height="2" fill="currentColor"/>
  <rect x="14" y="2" width="1" height="2" fill="currentColor"/>

  <!-- Row 2 -->
  <rect x="4" y="4" width="2" height="2" fill="currentColor"/>
  <rect x="8" y="4" width="2" height="2" fill="currentColor"/>
  <rect x="12" y="4" width="2" height="2" fill="currentColor"/>

  <!-- Row 3 -->
  <rect x="2" y="6" width="2" height="2" fill="currentColor"/>
  <rect x="6" y="6" width="2" height="2" fill="currentColor"/>
  <rect x="10" y="6" width="2" height="2" fill="currentColor"/>
  <rect x="14" y="6" width="1" height="2" fill="currentColor"/>

  <!-- Row 4 -->
  <rect x="4" y="8" width="2" height="2" fill="currentColor"/>
  <rect x="8" y="8" width="2" height="2" fill="currentColor"/>
  <rect x="12" y="8" width="2" height="2" fill="currentColor"/>

  <!-- Flag outline -->
  <path d="M2 2h13v8H2V2z" stroke="currentColor" stroke-width="0.5" fill="none"/>
</svg>
