<svg width="80" height="80" viewBox="0 0 80 80" xmlns="http://www.w3.org/2000/svg">
  <defs>
    <radialGradient id="backgroundGrad" cx="50%" cy="50%" r="50%">
      <stop offset="0%" style="stop-color:#f4e6d1;stop-opacity:0.8" />
      <stop offset="70%" style="stop-color:#e6d3b7;stop-opacity:0.6" />
      <stop offset="100%" style="stop-color:#d4b896;stop-opacity:0.4" />
    </radialGradient>
    <linearGradient id="branchGrad" x1="0%" y1="0%" x2="100%" y2="100%">
      <stop offset="0%" style="stop-color:#8b6914;stop-opacity:1" />
      <stop offset="50%" style="stop-color:#a0731a;stop-opacity:1" />
      <stop offset="100%" style="stop-color:#6b4f0d;stop-opacity:1" />
    </linearGradient>
  </defs>

  <!-- Light brown circular background -->
  <circle cx="40" cy="40" r="35" fill="url(#backgroundGrad)" />

  <!-- Main branch 1 - top arc -->
  <path d="M 40 40 Q 25 25 15 35" stroke="url(#branchGrad)" stroke-width="2" fill="none" stroke-linecap="round"/>
  <!-- Sub-branches for branch 1 -->
  <line x1="32" y1="32" x2="28" y2="25" stroke="url(#branchGrad)" stroke-width="1.2" stroke-linecap="round"/>
  <line x1="30" y1="34" x2="25" y2="28" stroke="url(#branchGrad)" stroke-width="1" stroke-linecap="round"/>
  <line x1="25" y1="32" x2="20" y2="28" stroke="url(#branchGrad)" stroke-width="1" stroke-linecap="round"/>
  <line x1="22" y1="34" x2="18" y2="30" stroke="url(#branchGrad)" stroke-width="0.8" stroke-linecap="round"/>
  <line x1="19" y1="36" x2="15" y2="32" stroke="url(#branchGrad)" stroke-width="0.8" stroke-linecap="round"/>

  <!-- Main branch 2 - top right arc -->
  <path d="M 40 40 Q 55 25 65 35" stroke="url(#branchGrad)" stroke-width="2" fill="none" stroke-linecap="round"/>
  <!-- Sub-branches for branch 2 -->
  <line x1="48" y1="32" x2="52" y2="25" stroke="url(#branchGrad)" stroke-width="1.2" stroke-linecap="round"/>
  <line x1="50" y1="34" x2="55" y2="28" stroke="url(#branchGrad)" stroke-width="1" stroke-linecap="round"/>
  <line x1="55" y1="32" x2="60" y2="28" stroke="url(#branchGrad)" stroke-width="1" stroke-linecap="round"/>
  <line x1="58" y1="34" x2="62" y2="30" stroke="url(#branchGrad)" stroke-width="0.8" stroke-linecap="round"/>
  <line x1="61" y1="36" x2="65" y2="32" stroke="url(#branchGrad)" stroke-width="0.8" stroke-linecap="round"/>

  <!-- Main branch 3 - right arc -->
  <path d="M 40 40 Q 55 55 65 45" stroke="url(#branchGrad)" stroke-width="2" fill="none" stroke-linecap="round"/>
  <!-- Sub-branches for branch 3 -->
  <line x1="48" y1="48" x2="52" y2="55" stroke="url(#branchGrad)" stroke-width="1.2" stroke-linecap="round"/>
  <line x1="50" y1="46" x2="55" y2="52" stroke="url(#branchGrad)" stroke-width="1" stroke-linecap="round"/>
  <line x1="55" y1="48" x2="60" y2="52" stroke="url(#branchGrad)" stroke-width="1" stroke-linecap="round"/>
  <line x1="58" y1="46" x2="62" y2="50" stroke="url(#branchGrad)" stroke-width="0.8" stroke-linecap="round"/>
  <line x1="61" y1="44" x2="65" y2="48" stroke="url(#branchGrad)" stroke-width="0.8" stroke-linecap="round"/>

  <!-- Main branch 4 - bottom right arc -->
  <path d="M 40 40 Q 55 55 45 65" stroke="url(#branchGrad)" stroke-width="2" fill="none" stroke-linecap="round"/>
  <!-- Sub-branches for branch 4 -->
  <line x1="48" y1="48" x2="55" y2="52" stroke="url(#branchGrad)" stroke-width="1.2" stroke-linecap="round"/>
  <line x1="46" y1="50" x2="52" y2="55" stroke="url(#branchGrad)" stroke-width="1" stroke-linecap="round"/>
  <line x1="48" y1="55" x2="52" y2="60" stroke="url(#branchGrad)" stroke-width="1" stroke-linecap="round"/>
  <line x1="46" y1="58" x2="50" y2="62" stroke="url(#branchGrad)" stroke-width="0.8" stroke-linecap="round"/>
  <line x1="44" y1="61" x2="48" y2="65" stroke="url(#branchGrad)" stroke-width="0.8" stroke-linecap="round"/>

  <!-- Main branch 5 - bottom arc -->
  <path d="M 40 40 Q 25 55 35 65" stroke="url(#branchGrad)" stroke-width="2" fill="none" stroke-linecap="round"/>
  <!-- Sub-branches for branch 5 -->
  <line x1="32" y1="48" x2="25" y2="52" stroke="url(#branchGrad)" stroke-width="1.2" stroke-linecap="round"/>
  <line x1="34" y1="50" x2="28" y2="55" stroke="url(#branchGrad)" stroke-width="1" stroke-linecap="round"/>
  <line x1="32" y1="55" x2="28" y2="60" stroke="url(#branchGrad)" stroke-width="1" stroke-linecap="round"/>
  <line x1="34" y1="58" x2="30" y2="62" stroke="url(#branchGrad)" stroke-width="0.8" stroke-linecap="round"/>
  <line x1="36" y1="61" x2="32" y2="65" stroke="url(#branchGrad)" stroke-width="0.8" stroke-linecap="round"/>

  <!-- Main branch 6 - left arc -->
  <path d="M 40 40 Q 25 25 15 45" stroke="url(#branchGrad)" stroke-width="2" fill="none" stroke-linecap="round"/>
  <!-- Sub-branches for branch 6 -->
  <line x1="32" y1="32" x2="25" y2="28" stroke="url(#branchGrad)" stroke-width="1.2" stroke-linecap="round"/>
  <line x1="30" y1="34" x2="25" y2="32" stroke="url(#branchGrad)" stroke-width="1" stroke-linecap="round"/>
  <line x1="25" y1="38" x2="20" y2="35" stroke="url(#branchGrad)" stroke-width="1" stroke-linecap="round"/>
  <line x1="22" y1="40" x2="18" y2="38" stroke="url(#branchGrad)" stroke-width="0.8" stroke-linecap="round"/>
  <line x1="19" y1="42" x2="15" y2="40" stroke="url(#branchGrad)" stroke-width="0.8" stroke-linecap="round"/>

  <!-- Main branch 7 - inner top-left arc -->
  <path d="M 40 40 Q 30 30 25 40" stroke="url(#branchGrad)" stroke-width="1.8" fill="none" stroke-linecap="round"/>
  <!-- Sub-branches for branch 7 -->
  <line x1="35" y1="35" x2="32" y2="30" stroke="url(#branchGrad)" stroke-width="1" stroke-linecap="round"/>
  <line x1="33" y1="36" x2="30" y2="32" stroke="url(#branchGrad)" stroke-width="0.8" stroke-linecap="round"/>
  <line x1="30" y1="37" x2="27" y2="34" stroke="url(#branchGrad)" stroke-width="0.8" stroke-linecap="round"/>
  <line x1="28" y1="38" x2="25" y2="35" stroke="url(#branchGrad)" stroke-width="0.6" stroke-linecap="round"/>
  <line x1="26" y1="39" x2="23" y2="36" stroke="url(#branchGrad)" stroke-width="0.6" stroke-linecap="round"/>

  <!-- Main branch 8 - inner bottom-right arc -->
  <path d="M 40 40 Q 50 50 55 40" stroke="url(#branchGrad)" stroke-width="1.8" fill="none" stroke-linecap="round"/>
  <!-- Sub-branches for branch 8 -->
  <line x1="45" y1="45" x2="48" y2="50" stroke="url(#branchGrad)" stroke-width="1" stroke-linecap="round"/>
  <line x1="47" y1="44" x2="50" y2="48" stroke="url(#branchGrad)" stroke-width="0.8" stroke-linecap="round"/>
  <line x1="50" y1="43" x2="53" y2="46" stroke="url(#branchGrad)" stroke-width="0.8" stroke-linecap="round"/>
  <line x1="52" y1="42" x2="55" y2="45" stroke="url(#branchGrad)" stroke-width="0.6" stroke-linecap="round"/>
  <line x1="54" y1="41" x2="57" y2="44" stroke="url(#branchGrad)" stroke-width="0.6" stroke-linecap="round"/>

  <!-- Central connection point -->
  <circle cx="40" cy="40" r="2" fill="url(#branchGrad)" />
</svg>
