<svg width="80" height="80" viewBox="0 0 80 80" xmlns="http://www.w3.org/2000/svg">
  <defs>
    <radialGradient id="backgroundGrad" cx="50%" cy="52%" r="50%">
      <stop offset="0%" style="stop-color:#f4e6d1;stop-opacity:0.8" />
      <stop offset="75%" style="stop-color:#e6d3b7;stop-opacity:0.6" />
      <stop offset="100%" style="stop-color:#d4b896;stop-opacity:0" />
    </radialGradient>
    <linearGradient id="branchGrad" x1="0%" y1="100%" x2="100%" y2="0%">
      <stop offset="0%" style="stop-color:#8b6914;stop-opacity:1" />
      <stop offset="50%" style="stop-color:#a0731a;stop-opacity:1" />
      <stop offset="100%" style="stop-color:#6b4f0d;stop-opacity:1" />
    </linearGradient>
  </defs>

  <!-- Light brown circular background -->
  <ellipse cx="40" cy="45" rx="37" ry="32" fill="url(#backgroundGrad)" />

  <!-- Root at bottom center -->
  <circle cx="40" cy="75" r="2.5" fill="url(#branchGrad)" />

  <path
     d="M 40 75 Q 45 50 38 20"
     stroke="url(#branchGrad)"
     stroke-width="2.2"
     fill="none"
     stroke-linecap="round" />
  <path
     d="M 40 75 Q 78 55 63 30"
     stroke="url(#branchGrad)"
     stroke-width="2.2"
     fill="none"
     stroke-linecap="round" />
  <path
     d="M 40 75 Q 5 50 30 18"
     stroke="url(#branchGrad)"
     stroke-width="2"
     fill="none"
     stroke-linecap="round" />
  <path
     d="M 40 75 Q 75 55 50 20"
     stroke="url(#branchGrad)"
     stroke-width="2"
     fill="none"
     stroke-linecap="round" />
  <path
     d="M 40 75 Q 25 60 30 30"
     stroke="url(#branchGrad)"
     stroke-width="1.8"
     fill="none"
     stroke-linecap="round" />
  <path
     d="M 40 75 Q 55 60 50 30"
     stroke="url(#branchGrad)"
     stroke-width="1.8"
     fill="none"
     stroke-linecap="round" />
  <path
     d="M 40 75 Q -10 60 20 22"
     stroke="url(#branchGrad)"
     stroke-width="1.6"
     fill="none"
     stroke-linecap="round" />
  <path
     d="M 40 75 Q 70 70 71 40"
     stroke="url(#branchGrad)"
     stroke-width="1.6"
     fill="none"
     stroke-linecap="round" />
  <path
     d="M 40 75 Q 28 40 35 10"
     stroke="url(#branchGrad)"
     stroke-width="1.4"
     fill="none"
     stroke-linecap="round" />

  <!-- Sub-branches for branch 1 (center upward) -->
  <line x1="41" y1="70" x2="37" y2="68" stroke="url(#branchGrad)" stroke-width="1.4" stroke-linecap="round"/>
  <line x1="42" y1="65" x2="45" y2="62" stroke="url(#branchGrad)" stroke-width="1.1" stroke-linecap="round"/>
  <line x1="41" y1="60" x2="36" y2="57" stroke="url(#branchGrad)" stroke-width="0.9" stroke-linecap="round"/>
  <line x1="40" y1="55" x2="34" y2="50" stroke="url(#branchGrad)" stroke-width="1.3" stroke-linecap="round"/>
  <line x1="39" y1="48" x2="43" y2="44" stroke="url(#branchGrad)" stroke-width="0.7" stroke-linecap="round"/>
  <line x1="39" y1="40" x2="33" y2="36" stroke="url(#branchGrad)" stroke-width="1.0" stroke-linecap="round"/>
  <line x1="38" y1="35" x2="42" y2="31" stroke="url(#branchGrad)" stroke-width="0.8" stroke-linecap="round"/>
  <line x1="38" y1="30" x2="34" y2="26" stroke="url(#branchGrad)" stroke-width="1.1" stroke-linecap="round"/>
  <line x1="37" y1="22" x2="40" y2="17" stroke="url(#branchGrad)" stroke-width="0.6" stroke-linecap="round"/>
  <line x1="36" y1="15" x2="31" y2="11" stroke="url(#branchGrad)" stroke-width="0.9" stroke-linecap="round"/>

  <!-- Sub-branches for branch 2 (right upward arc) -->
  <line x1="45" y1="72" x2="49" y2="69" stroke="url(#branchGrad)" stroke-width="1.3" stroke-linecap="round"/>
  <line x1="50" y1="68" x2="55" y2="65" stroke="url(#branchGrad)" stroke-width="1.0" stroke-linecap="round"/>
  <line x1="53" y1="63" x2="49" y2="59" stroke="url(#branchGrad)" stroke-width="0.8" stroke-linecap="round"/>
  <line x1="58" y1="58" x2="63" y2="53" stroke="url(#branchGrad)" stroke-width="1.2" stroke-linecap="round"/>
  <line x1="60" y1="53" x2="56" y2="49" stroke="url(#branchGrad)" stroke-width="0.7" stroke-linecap="round"/>
  <line x1="62" y1="48" x2="67" y2="43" stroke="url(#branchGrad)" stroke-width="1.1" stroke-linecap="round"/>
  <line x1="63" y1="42" x2="59" y2="38" stroke="url(#branchGrad)" stroke-width="0.9" stroke-linecap="round"/>
  <line x1="64" y1="38" x2="68" y2="33" stroke="url(#branchGrad)" stroke-width="0.6" stroke-linecap="round"/>
  <line x1="63" y1="35" x2="66" y2="31" stroke="url(#branchGrad)" stroke-width="1.0" stroke-linecap="round"/>
  <line x1="62" y1="32" x2="58" y2="28" stroke="url(#branchGrad)" stroke-width="0.8" stroke-linecap="round"/>

  <!-- Sub-branches for branch 3 (left upward arc) -->
  <line x1="35" y1="72" x2="31" y2="69" stroke="url(#branchGrad)" stroke-width="1.3" stroke-linecap="round"/>
  <line x1="30" y1="68" x2="25" y2="65" stroke="url(#branchGrad)" stroke-width="1.0" stroke-linecap="round"/>
  <line x1="27" y1="63" x2="31" y2="59" stroke="url(#branchGrad)" stroke-width="0.8" stroke-linecap="round"/>
  <line x1="22" y1="58" x2="17" y2="53" stroke="url(#branchGrad)" stroke-width="1.2" stroke-linecap="round"/>
  <line x1="20" y1="53" x2="24" y2="49" stroke="url(#branchGrad)" stroke-width="0.7" stroke-linecap="round"/>
  <line x1="18" y1="48" x2="13" y2="43" stroke="url(#branchGrad)" stroke-width="1.1" stroke-linecap="round"/>
  <line x1="17" y1="42" x2="21" y2="38" stroke="url(#branchGrad)" stroke-width="0.9" stroke-linecap="round"/>
  <line x1="22" y1="38" x2="18" y2="33" stroke="url(#branchGrad)" stroke-width="0.6" stroke-linecap="round"/>
  <line x1="25" y1="28" x2="22" y2="24" stroke="url(#branchGrad)" stroke-width="1.0" stroke-linecap="round"/>
  <line x1="28" y1="22" x2="32" y2="18" stroke="url(#branchGrad)" stroke-width="0.8" stroke-linecap="round"/>

  <!-- Sub-branches for branch 4 (right diagonal) -->
  <line x1="44" y1="73" x2="48" y2="71" stroke="url(#branchGrad)" stroke-width="1.2" stroke-linecap="round"/>
  <line x1="52" y1="70" x2="57" y2="67" stroke="url(#branchGrad)" stroke-width="1.4" stroke-linecap="round"/>
  <line x1="56" y1="65" x2="52" y2="61" stroke="url(#branchGrad)" stroke-width="0.9" stroke-linecap="round"/>
  <line x1="60" y1="62" x2="65" y2="57" stroke="url(#branchGrad)" stroke-width="1.1" stroke-linecap="round"/>
  <line x1="63" y1="58" x2="59" y2="54" stroke="url(#branchGrad)" stroke-width="0.7" stroke-linecap="round"/>
  <line x1="65" y1="52" x2="70" y2="47" stroke="url(#branchGrad)" stroke-width="1.0" stroke-linecap="round"/>
  <line x1="62" y1="47" x2="66" y2="43" stroke="url(#branchGrad)" stroke-width="0.8" stroke-linecap="round"/>
  <line x1="58" y1="42" x2="62" y2="37" stroke="url(#branchGrad)" stroke-width="0.6" stroke-linecap="round"/>
  <line x1="54" y1="32" x2="58" y2="28" stroke="url(#branchGrad)" stroke-width="0.9" stroke-linecap="round"/>
  <line x1="52" y1="25" x2="48" y2="22" stroke="url(#branchGrad)" stroke-width="0.8" stroke-linecap="round"/>

  <!-- Sub-branches for branch 5 (left-center) -->
  <line x1="39" y1="74" x2="35" y2="72" stroke="url(#branchGrad)" stroke-width="1.1" stroke-linecap="round"/>
  <line x1="36" y1="72" x2="29" y2="69" stroke="url(#branchGrad)" stroke-width="1.3" stroke-linecap="round"/>
  <line x1="33" y1="68" x2="37" y2="64" stroke="url(#branchGrad)" stroke-width="0.8" stroke-linecap="round"/>
  <line x1="32" y1="65" x2="25" y2="61" stroke="url(#branchGrad)" stroke-width="1.0" stroke-linecap="round"/>
  <line x1="31" y1="60" x2="35" y2="56" stroke="url(#branchGrad)" stroke-width="0.7" stroke-linecap="round"/>
  <line x1="31" y1="55" x2="24" y2="51" stroke="url(#branchGrad)" stroke-width="0.9" stroke-linecap="round"/>
  <line x1="30" y1="50" x2="34" y2="46" stroke="url(#branchGrad)" stroke-width="0.6" stroke-linecap="round"/>
  <line x1="30" y1="45" x2="25" y2="41" stroke="url(#branchGrad)" stroke-width="0.8" stroke-linecap="round"/>
  <line x1="30" y1="40" x2="26" y2="36" stroke="url(#branchGrad)" stroke-width="1.0" stroke-linecap="round"/>
  <line x1="31" y1="35" x2="27" y2="31" stroke="url(#branchGrad)" stroke-width="0.6" stroke-linecap="round"/>

  <!-- Sub-branches for branch 6 (right-center) -->
  <line x1="41" y1="74" x2="45" y2="72" stroke="url(#branchGrad)" stroke-width="1.1" stroke-linecap="round"/>
  <line x1="44" y1="72" x2="51" y2="69" stroke="url(#branchGrad)" stroke-width="1.3" stroke-linecap="round"/>
  <line x1="47" y1="68" x2="43" y2="64" stroke="url(#branchGrad)" stroke-width="0.8" stroke-linecap="round"/>
  <line x1="48" y1="65" x2="55" y2="61" stroke="url(#branchGrad)" stroke-width="1.0" stroke-linecap="round"/>
  <line x1="49" y1="60" x2="45" y2="56" stroke="url(#branchGrad)" stroke-width="0.7" stroke-linecap="round"/>
  <line x1="49" y1="55" x2="56" y2="51" stroke="url(#branchGrad)" stroke-width="0.9" stroke-linecap="round"/>
  <line x1="50" y1="50" x2="46" y2="46" stroke="url(#branchGrad)" stroke-width="0.6" stroke-linecap="round"/>
  <line x1="50" y1="45" x2="55" y2="41" stroke="url(#branchGrad)" stroke-width="0.8" stroke-linecap="round"/>
  <line x1="50" y1="40" x2="54" y2="36" stroke="url(#branchGrad)" stroke-width="1.0" stroke-linecap="round"/>
  <line x1="49" y1="35" x2="53" y2="31" stroke="url(#branchGrad)" stroke-width="0.6" stroke-linecap="round"/>

  <!-- Sub-branches for branch 7 (far left) -->
  <line x1="36" y1="74" x2="32" y2="73" stroke="url(#branchGrad)" stroke-width="1.2" stroke-linecap="round"/>
  <line x1="28" y1="73" x2="23" y2="71" stroke="url(#branchGrad)" stroke-width="1.4" stroke-linecap="round"/>
  <line x1="24" y1="71" x2="28" y2="67" stroke="url(#branchGrad)" stroke-width="0.9" stroke-linecap="round"/>
  <line x1="18" y1="68" x2="13" y2="65" stroke="url(#branchGrad)" stroke-width="1.1" stroke-linecap="round"/>
  <line x1="14" y1="66" x2="18" y2="62" stroke="url(#branchGrad)" stroke-width="0.7" stroke-linecap="round"/>
  <line x1="10" y1="62" x2="6" y2="59" stroke="url(#branchGrad)" stroke-width="1.0" stroke-linecap="round"/>
  <line x1="8" y1="60" x2="12" y2="56" stroke="url(#branchGrad)" stroke-width="0.8" stroke-linecap="round"/>
  <line x1="15" y1="52" x2="10" y2="49" stroke="url(#branchGrad)" stroke-width="0.6" stroke-linecap="round"/>
  <line x1="19" y1="35" x2="23" y2="31" stroke="url(#branchGrad)" stroke-width="0.9" stroke-linecap="round"/>
  <line x1="18" y1="28" x2="15" y2="25" stroke="url(#branchGrad)" stroke-width="0.8" stroke-linecap="round"/>

  <!-- Sub-branches for branch 8 (far right) -->
  <line x1="44" y1="74" x2="48" y2="73" stroke="url(#branchGrad)" stroke-width="1.2" stroke-linecap="round"/>
  <line x1="52" y1="73" x2="57" y2="71" stroke="url(#branchGrad)" stroke-width="1.4" stroke-linecap="round"/>
  <line x1="56" y1="71" x2="52" y2="67" stroke="url(#branchGrad)" stroke-width="0.9" stroke-linecap="round"/>
  <line x1="62" y1="70" x2="67" y2="67" stroke="url(#branchGrad)" stroke-width="1.1" stroke-linecap="round"/>
  <line x1="66" y1="68" x2="62" y2="64" stroke="url(#branchGrad)" stroke-width="0.7" stroke-linecap="round"/>
  <line x1="69" y1="65" x2="74" y2="61" stroke="url(#branchGrad)" stroke-width="1.0" stroke-linecap="round"/>
  <line x1="72" y1="63" x2="68" y2="59" stroke="url(#branchGrad)" stroke-width="0.8" stroke-linecap="round"/>
  <line x1="71" y1="55" x2="75" y2="51" stroke="url(#branchGrad)" stroke-width="0.6" stroke-linecap="round"/>
  <line x1="70" y1="50" x2="74" y2="46" stroke="url(#branchGrad)" stroke-width="0.9" stroke-linecap="round"/>
  <line x1="71" y1="45" x2="75" y2="42" stroke="url(#branchGrad)" stroke-width="0.8" stroke-linecap="round"/>

  <!-- Sub-branches for branch 9 (top arc) -->
  <line x1="38" y1="70" x2="34" y2="68" stroke="url(#branchGrad)" stroke-width="1.1" stroke-linecap="round"/>
  <line x1="35" y1="65" x2="31" y2="61" stroke="url(#branchGrad)" stroke-width="1.3" stroke-linecap="round"/>
  <line x1="32" y1="62" x2="36" y2="58" stroke="url(#branchGrad)" stroke-width="0.8" stroke-linecap="round"/>
  <line x1="33" y1="55" x2="28" y2="51" stroke="url(#branchGrad)" stroke-width="1.0" stroke-linecap="round"/>
  <line x1="32" y1="50" x2="36" y2="46" stroke="url(#branchGrad)" stroke-width="0.7" stroke-linecap="round"/>
  <line x1="33" y1="42" x2="29" y2="38" stroke="url(#branchGrad)" stroke-width="0.9" stroke-linecap="round"/>
  <line x1="34" y1="35" x2="39" y2="31" stroke="url(#branchGrad)" stroke-width="0.6" stroke-linecap="round"/>
  <line x1="35" y1="28" x2="31" y2="24" stroke="url(#branchGrad)" stroke-width="0.8" stroke-linecap="round"/>
  <line x1="35" y1="20" x2="38" y2="15" stroke="url(#branchGrad)" stroke-width="1.0" stroke-linecap="round"/>
  <line x1="35" y1="13" x2="30" y2="7" stroke="url(#branchGrad)" stroke-width="0.6" stroke-linecap="round"/>

</svg>
