<svg width="80" height="80" viewBox="0 0 80 80" xmlns="http://www.w3.org/2000/svg">
  <defs>
    <radialGradient id="backgroundGrad" cx="50%" cy="60%" r="50%">
      <stop offset="0%" style="stop-color:#f4e6d1;stop-opacity:0.6" />
      <stop offset="70%" style="stop-color:#e6d3b7;stop-opacity:0.4" />
      <stop offset="100%" style="stop-color:#d4b896;stop-opacity:0.2" />
    </radialGradient>
    <linearGradient id="branchGrad" x1="0%" y1="100%" x2="100%" y2="0%">
      <stop offset="0%" style="stop-color:#8b6914;stop-opacity:1" />
      <stop offset="50%" style="stop-color:#a0731a;stop-opacity:1" />
      <stop offset="100%" style="stop-color:#6b4f0d;stop-opacity:1" />
    </linearGradient>
  </defs>

  <!-- Light brown circular background centered slightly lower -->
  <circle cx="40" cy="45" r="32" fill="url(#backgroundGrad)" />

  <!-- Root at bottom center -->
  <circle cx="40" cy="75" r="2.5" fill="url(#branchGrad)" />

  <path
     d="M 40 75 Q 45 50 38 20"
     stroke="url(#branchGrad)"
     stroke-width="2.2"
     fill="none"
     stroke-linecap="round" />
  <path
     d="M 40 75 Q 78 55 63 30"
     stroke="url(#branchGrad)"
     stroke-width="2.2"
     fill="none"
     stroke-linecap="round" />
  <path
     d="M 40 75 Q 5 50 30 18"
     stroke="url(#branchGrad)"
     stroke-width="2"
     fill="none"
     stroke-linecap="round" />
  <path
     d="M 40 75 Q 75 55 50 20"
     stroke="url(#branchGrad)"
     stroke-width="2"
     fill="none"
     stroke-linecap="round" />
  <path
     d="M 40 75 Q 25 60 30 30"
     stroke="url(#branchGrad)"
     stroke-width="1.8"
     fill="none"
     stroke-linecap="round" />
  <path
     d="M 40 75 Q 55 60 50 30"
     stroke="url(#branchGrad)"
     stroke-width="1.8"
     fill="none"
     stroke-linecap="round" />
  <path
     d="M 40 75 Q -10 60 20 22"
     stroke="url(#branchGrad)"
     stroke-width="1.6"
     fill="none"
     stroke-linecap="round" />
  <path
     d="M 40 75 Q 70 70 71 40"
     stroke="url(#branchGrad)"
     stroke-width="1.6"
     fill="none"
     stroke-linecap="round" />
  <path
     d="M 40 75 Q 28 40 35 10"
     stroke="url(#branchGrad)"
     stroke-width="1.4"
     fill="none"
     stroke-linecap="round" />
</svg>
